<mxfile host="app.diagrams.net" modified="2022-11-12T16:14:33.520Z" agent="5.0 (Macintosh)" etag="V2fcKxLVXQU6lRGWfX12" version="20.5.3" type="github">
  <diagram id="MzWI8Xbqk4ogClHRenAQ" name="Page-1">
    <mxGraphModel dx="946" dy="615" grid="1" gridSize="10" guides="1" tooltips="1" connect="1" arrows="1" fold="1" page="1" pageScale="1" pageWidth="850" pageHeight="1100" math="0" shadow="0">
      <root>
        <mxCell id="0" />
        <mxCell id="1" parent="0" />
        <mxCell id="j6rCjOf4KR4LdH4R0Cua-5" value="" style="shape=cube;whiteSpace=wrap;html=1;boundedLbl=1;backgroundOutline=0;darkOpacity=0.05;darkOpacity2=0.1;rotatable=0;cloneable=0;deletable=1;resizable=0;movable=0;recursiveResize=0;allowArrows=0;connectable=0;" parent="1" vertex="1">
          <mxGeometry x="40" y="160" width="800" height="530" as="geometry" />
        </mxCell>
        <mxCell id="j6rCjOf4KR4LdH4R0Cua-7" value="Jacques" style="text;html=1;align=center;verticalAlign=middle;resizable=0;points=[];autosize=1;strokeColor=none;fillColor=none;fontStyle=1;horizontal=1;fontSize=20;labelBackgroundColor=default;shadow=0;rounded=0;fontFamily=Helvetica;" parent="1" vertex="1">
          <mxGeometry x="42" y="140" width="100" height="40" as="geometry" />
        </mxCell>
        <mxCell id="j6rCjOf4KR4LdH4R0Cua-9" value="&lt;div style=&quot;font-size: 15px;&quot;&gt;Ruleset&lt;br style=&quot;font-size: 15px;&quot;&gt;&lt;/div&gt;" style="shape=cylinder3;whiteSpace=wrap;html=1;boundedLbl=1;backgroundOutline=1;size=15;rounded=0;shadow=0;labelBackgroundColor=default;fontSize=15;fontFamily=Helvetica;fontStyle=1" parent="1" vertex="1">
          <mxGeometry x="630" y="560" width="150" height="80" as="geometry" />
        </mxCell>
        <mxCell id="j6rCjOf4KR4LdH4R0Cua-10" value="DSL example" style="rounded=1;whiteSpace=wrap;html=1;shadow=0;labelBackgroundColor=default;fontSize=15;fontFamily=Helvetica;fontStyle=1" parent="1" vertex="1">
          <mxGeometry x="126" y="40" width="120" height="60" as="geometry" />
        </mxCell>
        <mxCell id="j6rCjOf4KR4LdH4R0Cua-17" style="edgeStyle=orthogonalEdgeStyle;shape=link;rounded=0;orthogonalLoop=1;jettySize=auto;html=1;entryX=1;entryY=0.5;entryDx=0;entryDy=0;fontSize=20;strokeWidth=1;" parent="1" source="j6rCjOf4KR4LdH4R0Cua-11" target="j6rCjOf4KR4LdH4R0Cua-10" edge="1">
          <mxGeometry relative="1" as="geometry" />
        </mxCell>
        <mxCell id="j6rCjOf4KR4LdH4R0Cua-11" value="Code example" style="rounded=1;whiteSpace=wrap;html=1;shadow=0;labelBackgroundColor=default;fontSize=15;fontFamily=Helvetica;fontStyle=1" parent="1" vertex="1">
          <mxGeometry x="256" y="40" width="120" height="60" as="geometry" />
        </mxCell>
        <mxCell id="j6rCjOf4KR4LdH4R0Cua-12" value="&amp;lt;&lt;font style=&quot;font-size: 12px;&quot;&gt;string&amp;gt;&lt;/font&gt;" style="endArrow=classic;html=1;rounded=0;fontSize=12;exitX=0.5;exitY=1;exitDx=0;exitDy=0;entryX=0.5;entryY=0;entryDx=0;entryDy=0;verticalAlign=middle;fontFamily=Courier New;fontStyle=0" parent="1" source="j6rCjOf4KR4LdH4R0Cua-10" target="j6rCjOf4KR4LdH4R0Cua-19" edge="1">
          <mxGeometry x="-0.0253" width="50" height="50" relative="1" as="geometry">
            <mxPoint x="206" y="320" as="sourcePoint" />
            <mxPoint x="162.29999999999995" y="240.15999999999997" as="targetPoint" />
            <mxPoint as="offset" />
          </mxGeometry>
        </mxCell>
        <mxCell id="j6rCjOf4KR4LdH4R0Cua-13" value="" style="endArrow=classic;html=1;rounded=0;fontSize=20;exitX=0.5;exitY=1;exitDx=0;exitDy=0;entryX=0.5;entryY=0;entryDx=0;entryDy=0;" parent="1" source="j6rCjOf4KR4LdH4R0Cua-11" target="j6rCjOf4KR4LdH4R0Cua-20" edge="1">
          <mxGeometry width="50" height="50" relative="1" as="geometry">
            <mxPoint x="330.5" y="100.00000000000001" as="sourcePoint" />
            <mxPoint x="330.79999999999995" y="238.17999999999998" as="targetPoint" />
          </mxGeometry>
        </mxCell>
        <mxCell id="j6rCjOf4KR4LdH4R0Cua-23" value="&amp;lt;string&amp;gt;" style="edgeLabel;html=1;align=center;verticalAlign=middle;resizable=0;points=[];fontSize=12;fontFamily=Courier New;fontStyle=0" parent="j6rCjOf4KR4LdH4R0Cua-13" vertex="1" connectable="0">
          <mxGeometry x="-0.2415" y="1" relative="1" as="geometry">
            <mxPoint x="-1" y="10" as="offset" />
          </mxGeometry>
        </mxCell>
        <mxCell id="j6rCjOf4KR4LdH4R0Cua-28" value="" style="edgeStyle=orthogonalEdgeStyle;rounded=0;orthogonalLoop=1;jettySize=auto;html=1;fontFamily=Courier New;fontSize=12;strokeWidth=1;" parent="1" source="j6rCjOf4KR4LdH4R0Cua-19" edge="1">
          <mxGeometry relative="1" as="geometry">
            <mxPoint x="186" y="270" as="targetPoint" />
          </mxGeometry>
        </mxCell>
        <mxCell id="j6rCjOf4KR4LdH4R0Cua-33" value="&amp;lt;DslJAST&amp;gt;" style="edgeLabel;html=1;align=center;verticalAlign=middle;resizable=0;points=[];fontSize=12;fontFamily=Courier New;fontStyle=0" parent="j6rCjOf4KR4LdH4R0Cua-28" vertex="1" connectable="0">
          <mxGeometry x="-0.3268" y="2" relative="1" as="geometry">
            <mxPoint as="offset" />
          </mxGeometry>
        </mxCell>
        <mxCell id="j6rCjOf4KR4LdH4R0Cua-19" value="DSL Parser" style="rhombus;whiteSpace=wrap;html=1;rounded=0;shadow=0;labelBackgroundColor=default;fontSize=15;fontFamily=Helvetica;fontStyle=1;fillColor=none;" parent="1" vertex="1">
          <mxGeometry x="128.5" y="180" width="115" height="50" as="geometry" />
        </mxCell>
        <mxCell id="j6rCjOf4KR4LdH4R0Cua-27" value="" style="edgeStyle=orthogonalEdgeStyle;rounded=0;orthogonalLoop=1;jettySize=auto;html=1;fontFamily=Courier New;fontSize=12;strokeWidth=1;" parent="1" source="j6rCjOf4KR4LdH4R0Cua-20" edge="1">
          <mxGeometry relative="1" as="geometry">
            <mxPoint x="316" y="270" as="targetPoint" />
          </mxGeometry>
        </mxCell>
        <mxCell id="j6rCjOf4KR4LdH4R0Cua-34" value="&amp;lt;CodeJAST&amp;gt;" style="edgeLabel;html=1;align=center;verticalAlign=middle;resizable=0;points=[];fontSize=12;fontFamily=Courier New;fontStyle=0" parent="j6rCjOf4KR4LdH4R0Cua-27" vertex="1" connectable="0">
          <mxGeometry x="-0.3431" y="2" relative="1" as="geometry">
            <mxPoint as="offset" />
          </mxGeometry>
        </mxCell>
        <mxCell id="j6rCjOf4KR4LdH4R0Cua-20" value="&lt;span style=&quot;background-color: transparent;&quot;&gt;Code Parser&lt;/span&gt;" style="rhombus;whiteSpace=wrap;html=1;rounded=0;shadow=0;labelBackgroundColor=default;fontSize=15;fontFamily=Helvetica;fontStyle=1;fillColor=none;" parent="1" vertex="1">
          <mxGeometry x="258.5" y="180" width="115" height="50" as="geometry" />
        </mxCell>
        <mxCell id="rY513LM-Vtfgfo_wqPMt-31" style="edgeStyle=orthogonalEdgeStyle;rounded=0;orthogonalLoop=1;jettySize=auto;html=1;fontFamily=Courier New;" parent="1" source="HDfJS3hetedEApgrcwt5-2" edge="1">
          <mxGeometry relative="1" as="geometry">
            <mxPoint x="630" y="600" as="targetPoint" />
          </mxGeometry>
        </mxCell>
        <mxCell id="rY513LM-Vtfgfo_wqPMt-32" value="List&amp;lt;Rule&amp;gt;" style="edgeLabel;html=1;align=center;verticalAlign=middle;resizable=0;points=[];fontFamily=Courier New;" parent="rY513LM-Vtfgfo_wqPMt-31" vertex="1" connectable="0">
          <mxGeometry x="-0.0036" y="3" relative="1" as="geometry">
            <mxPoint as="offset" />
          </mxGeometry>
        </mxCell>
        <mxCell id="HDfJS3hetedEApgrcwt5-2" value="&lt;font style=&quot;font-size: 15px;&quot;&gt;&lt;b&gt;RuleSynthesizer&lt;br&gt;&lt;/b&gt;&lt;/font&gt;" style="rounded=0;whiteSpace=wrap;html=1;" parent="1" vertex="1">
          <mxGeometry x="394.5" y="570" width="130" height="60" as="geometry" />
        </mxCell>
        <mxCell id="rY513LM-Vtfgfo_wqPMt-4" value="" style="group" parent="1" vertex="1" connectable="0">
          <mxGeometry x="409.5" y="370" width="242.5" height="150" as="geometry" />
        </mxCell>
        <mxCell id="j6rCjOf4KR4LdH4R0Cua-35" value="ExampleMatrix" style="swimlane;rounded=0;shadow=0;labelBackgroundColor=default;fontFamily=Helvetica;fontSize=15;fontStyle=1" parent="rY513LM-Vtfgfo_wqPMt-4" vertex="1">
          <mxGeometry width="242.5" height="150" as="geometry">
            <mxRectangle x="397.5" y="270" width="120" height="30" as="alternateBounds" />
          </mxGeometry>
        </mxCell>
        <mxCell id="rY513LM-Vtfgfo_wqPMt-1" value="&lt;div&gt;codeHeader: List&amp;lt;CodeJAST&amp;gt;&lt;/div&gt;&lt;div&gt;dslHeader: List&amp;lt;DslJAST&amp;gt;&lt;/div&gt;&lt;div&gt;m: Array&amp;lt;Array&amp;lt;int&amp;gt;&amp;gt;&lt;br&gt;&lt;/div&gt;" style="text;html=1;strokeColor=none;fillColor=none;align=left;verticalAlign=top;whiteSpace=wrap;rounded=0;labelBackgroundColor=none;fontFamily=Courier New;" parent="j6rCjOf4KR4LdH4R0Cua-35" vertex="1">
          <mxGeometry x="11.123853211009175" y="23" width="193.55504587155963" height="60" as="geometry" />
        </mxCell>
        <mxCell id="rY513LM-Vtfgfo_wqPMt-2" value="" style="endArrow=none;html=1;rounded=0;fontFamily=Courier New;exitX=0;exitY=0.75;exitDx=0;exitDy=0;" parent="rY513LM-Vtfgfo_wqPMt-4" edge="1">
          <mxGeometry width="50" height="50" relative="1" as="geometry">
            <mxPoint y="86.5" as="sourcePoint" />
            <mxPoint x="242.5" y="87" as="targetPoint" />
          </mxGeometry>
        </mxCell>
        <mxCell id="rY513LM-Vtfgfo_wqPMt-3" value="&lt;div&gt;matches(): List&amp;lt;List&amp;lt;CodeJAST&amp;gt;,&lt;/div&gt;&lt;div&gt;&lt;span style=&quot;white-space: pre;&quot;&gt; &lt;/span&gt;List&amp;lt;DslJAST&amp;gt;,&lt;/div&gt;&lt;div&gt;&lt;span style=&quot;white-space: pre;&quot;&gt; &lt;/span&gt;List&amp;lt;CodeJAST&amp;gt;&amp;gt;&lt;br&gt;&lt;/div&gt;" style="text;html=1;strokeColor=none;fillColor=none;align=left;verticalAlign=top;whiteSpace=wrap;rounded=0;labelBackgroundColor=none;fontFamily=Courier New;" parent="rY513LM-Vtfgfo_wqPMt-4" vertex="1">
          <mxGeometry x="10.01" y="83" width="229.99" height="60" as="geometry" />
        </mxCell>
        <mxCell id="rY513LM-Vtfgfo_wqPMt-16" style="edgeStyle=orthogonalEdgeStyle;rounded=0;orthogonalLoop=1;jettySize=auto;html=1;exitX=0.5;exitY=1;exitDx=0;exitDy=0;entryX=0.5;entryY=0;entryDx=0;entryDy=0;fontFamily=Helvetica;" parent="1" source="rY513LM-Vtfgfo_wqPMt-7" target="rY513LM-Vtfgfo_wqPMt-10" edge="1">
          <mxGeometry relative="1" as="geometry" />
        </mxCell>
        <mxCell id="rY513LM-Vtfgfo_wqPMt-7" value="&lt;font face=&quot;Helvetica&quot;&gt;Apply insights&lt;/font&gt;" style="rhombus;whiteSpace=wrap;html=1;labelBackgroundColor=none;fontFamily=Courier New;fillColor=default;" parent="1" vertex="1">
          <mxGeometry x="674" y="370" width="110" height="30" as="geometry" />
        </mxCell>
        <mxCell id="rY513LM-Vtfgfo_wqPMt-17" style="edgeStyle=orthogonalEdgeStyle;rounded=0;orthogonalLoop=1;jettySize=auto;html=1;exitX=0.5;exitY=1;exitDx=0;exitDy=0;entryX=0.5;entryY=0;entryDx=0;entryDy=0;fontFamily=Helvetica;" parent="1" source="rY513LM-Vtfgfo_wqPMt-10" target="rY513LM-Vtfgfo_wqPMt-11" edge="1">
          <mxGeometry relative="1" as="geometry" />
        </mxCell>
        <mxCell id="rY513LM-Vtfgfo_wqPMt-10" value="&lt;font face=&quot;Helvetica&quot;&gt;Apply rules&lt;/font&gt;" style="rhombus;whiteSpace=wrap;html=1;labelBackgroundColor=none;fontFamily=Courier New;fillColor=default;" parent="1" vertex="1">
          <mxGeometry x="674" y="420" width="110" height="30" as="geometry" />
        </mxCell>
        <mxCell id="rY513LM-Vtfgfo_wqPMt-25" style="edgeStyle=orthogonalEdgeStyle;rounded=0;orthogonalLoop=1;jettySize=auto;html=1;fontFamily=Helvetica;" parent="1" source="rY513LM-Vtfgfo_wqPMt-11" edge="1">
          <mxGeometry relative="1" as="geometry">
            <mxPoint x="650" y="495" as="targetPoint" />
            <Array as="points">
              <mxPoint x="670" y="495" />
              <mxPoint x="670" y="495" />
            </Array>
          </mxGeometry>
        </mxCell>
        <mxCell id="rY513LM-Vtfgfo_wqPMt-11" value="&lt;div&gt;Cross-compare&lt;/div&gt;&lt;div&gt;arguments&lt;br&gt;&lt;/div&gt;" style="rhombus;whiteSpace=wrap;html=1;labelBackgroundColor=none;fontFamily=Helvetica;fillColor=default;verticalAlign=middle;horizontal=1;" parent="1" vertex="1">
          <mxGeometry x="674" y="470" width="110" height="50" as="geometry" />
        </mxCell>
        <mxCell id="rY513LM-Vtfgfo_wqPMt-13" style="edgeStyle=orthogonalEdgeStyle;rounded=0;orthogonalLoop=1;jettySize=auto;html=1;entryX=0;entryY=0.5;entryDx=0;entryDy=0;fontFamily=Helvetica;exitX=0.998;exitY=0.106;exitDx=0;exitDy=0;exitPerimeter=0;" parent="1" source="j6rCjOf4KR4LdH4R0Cua-35" target="rY513LM-Vtfgfo_wqPMt-7" edge="1">
          <mxGeometry relative="1" as="geometry">
            <mxPoint x="640" y="295" as="sourcePoint" />
          </mxGeometry>
        </mxCell>
        <mxCell id="rY513LM-Vtfgfo_wqPMt-27" style="edgeStyle=orthogonalEdgeStyle;rounded=0;orthogonalLoop=1;jettySize=auto;html=1;entryX=0.76;entryY=0.002;entryDx=0;entryDy=0;fontFamily=Helvetica;entryPerimeter=0;" parent="1" target="HDfJS3hetedEApgrcwt5-2" edge="1">
          <mxGeometry relative="1" as="geometry">
            <mxPoint x="493" y="520" as="sourcePoint" />
          </mxGeometry>
        </mxCell>
        <mxCell id="rY513LM-Vtfgfo_wqPMt-28" value="matches()" style="edgeLabel;html=1;align=center;verticalAlign=middle;resizable=0;points=[];fontFamily=Courier New;" parent="rY513LM-Vtfgfo_wqPMt-27" vertex="1" connectable="0">
          <mxGeometry x="-0.0805" relative="1" as="geometry">
            <mxPoint as="offset" />
          </mxGeometry>
        </mxCell>
        <mxCell id="rY513LM-Vtfgfo_wqPMt-29" value="" style="curved=1;endArrow=classic;html=1;rounded=0;fontFamily=Courier New;exitX=1;exitY=0;exitDx=0;exitDy=42.5;exitPerimeter=0;entryX=1;entryY=0.5;entryDx=0;entryDy=0;dashed=1;" parent="1" source="j6rCjOf4KR4LdH4R0Cua-9" target="rY513LM-Vtfgfo_wqPMt-10" edge="1">
          <mxGeometry width="50" height="50" relative="1" as="geometry">
            <mxPoint x="460" y="500" as="sourcePoint" />
            <mxPoint x="510" y="450" as="targetPoint" />
            <Array as="points">
              <mxPoint x="830" y="380" />
            </Array>
          </mxGeometry>
        </mxCell>
        <mxCell id="rY513LM-Vtfgfo_wqPMt-42" value="" style="group" parent="1" vertex="1" connectable="0">
          <mxGeometry x="117" y="270" width="246" height="160" as="geometry" />
        </mxCell>
        <mxCell id="rY513LM-Vtfgfo_wqPMt-33" value="" style="group" parent="rY513LM-Vtfgfo_wqPMt-42" vertex="1" connectable="0">
          <mxGeometry width="209.6590909090909" height="126.1788617886179" as="geometry" />
        </mxCell>
        <mxCell id="rY513LM-Vtfgfo_wqPMt-34" value="Example" style="swimlane;rounded=0;shadow=0;labelBackgroundColor=default;fontFamily=Helvetica;fontSize=15;fontStyle=1" parent="rY513LM-Vtfgfo_wqPMt-33" vertex="1">
          <mxGeometry width="209.6590909090909" height="126.17886178861787" as="geometry">
            <mxRectangle x="397.5" y="270" width="120" height="30" as="alternateBounds" />
          </mxGeometry>
        </mxCell>
        <mxCell id="rY513LM-Vtfgfo_wqPMt-38" value="" style="group;fillColor=default;" parent="rY513LM-Vtfgfo_wqPMt-42" vertex="1" connectable="0">
          <mxGeometry x="18.170454545454547" y="16.91056910569106" width="209.6590909090909" height="126.1788617886179" as="geometry" />
        </mxCell>
        <mxCell id="rY513LM-Vtfgfo_wqPMt-39" value="Example" style="swimlane;rounded=0;shadow=0;labelBackgroundColor=default;fontFamily=Helvetica;fontSize=15;fontStyle=1" parent="rY513LM-Vtfgfo_wqPMt-38" vertex="1">
          <mxGeometry width="209.6590909090909" height="126.17886178861787" as="geometry">
            <mxRectangle x="397.5" y="270" width="120" height="30" as="alternateBounds" />
          </mxGeometry>
        </mxCell>
        <mxCell id="rY513LM-Vtfgfo_wqPMt-40" value="" style="group;fillColor=default;" parent="rY513LM-Vtfgfo_wqPMt-42" vertex="1" connectable="0">
          <mxGeometry x="36.34090909090909" y="33.82113821138212" width="209.6590909090909" height="126.1788617886179" as="geometry" />
        </mxCell>
        <mxCell id="rY513LM-Vtfgfo_wqPMt-41" value="Example" style="swimlane;rounded=0;shadow=0;labelBackgroundColor=default;fontFamily=Helvetica;fontSize=15;fontStyle=1" parent="rY513LM-Vtfgfo_wqPMt-40" vertex="1">
          <mxGeometry width="209.6590909090909" height="126.17886178861787" as="geometry">
            <mxRectangle x="397.5" y="270" width="120" height="30" as="alternateBounds" />
          </mxGeometry>
        </mxCell>
        <mxCell id="rY513LM-Vtfgfo_wqPMt-51" value="&lt;div&gt;sourceCode: String&lt;/div&gt;&lt;div&gt;sourceDSL: String&lt;/div&gt;&lt;div&gt;rootCodeJast: CodeJAST&lt;/div&gt;&lt;div&gt;rootDslJAST: DslJAST&lt;br&gt;&lt;/div&gt;" style="text;html=1;strokeColor=none;fillColor=none;align=left;verticalAlign=top;whiteSpace=wrap;rounded=0;labelBackgroundColor=none;fontFamily=Courier New;" parent="rY513LM-Vtfgfo_wqPMt-41" vertex="1">
          <mxGeometry x="8.386363636363637" y="20.909090909090914" width="201.27272727272728" height="48.36363636363637" as="geometry" />
        </mxCell>
        <mxCell id="rY513LM-Vtfgfo_wqPMt-50" value="" style="endArrow=none;html=1;rounded=0;fontFamily=Courier New;entryX=1;entryY=0.75;entryDx=0;entryDy=0;exitX=0;exitY=0.75;exitDx=0;exitDy=0;" parent="rY513LM-Vtfgfo_wqPMt-40" edge="1">
          <mxGeometry width="50" height="50" relative="1" as="geometry">
            <mxPoint y="90.2705099778273" as="sourcePoint" />
            <mxPoint x="209.6590909090909" y="90.2705099778273" as="targetPoint" />
          </mxGeometry>
        </mxCell>
        <mxCell id="rY513LM-Vtfgfo_wqPMt-45" value="" style="group" parent="1" vertex="1" connectable="0">
          <mxGeometry x="385" y="150" width="465" height="190" as="geometry" />
        </mxCell>
        <mxCell id="j6rCjOf4KR4LdH4R0Cua-2" value="&lt;div align=&quot;center&quot;&gt;&lt;b&gt;World knowledge (Constant)&lt;br&gt;&lt;/b&gt;&lt;/div&gt;&lt;div align=&quot;left&quot;&gt;&lt;ul&gt;&lt;li&gt;DSL-specific configuration, i.e. common syntax tokens.&lt;br&gt;&lt;/li&gt;&lt;/ul&gt;&lt;/div&gt;" style="ellipse;shape=cloud;whiteSpace=wrap;html=1;align=center;fontFamily=Helvetica;" parent="rY513LM-Vtfgfo_wqPMt-45" vertex="1">
          <mxGeometry width="465" height="120" as="geometry" />
        </mxCell>
        <mxCell id="j6rCjOf4KR4LdH4R0Cua-3" value="&lt;div align=&quot;left&quot;&gt;&lt;b&gt;Problem knowledge (Dynamic)&lt;/b&gt;&lt;br&gt;&lt;ul&gt;&lt;li&gt;Encountered object names&lt;/li&gt;&lt;/ul&gt;&lt;/div&gt;" style="ellipse;shape=cloud;whiteSpace=wrap;html=1;align=center;fontFamily=Helvetica;" parent="rY513LM-Vtfgfo_wqPMt-45" vertex="1">
          <mxGeometry x="35" y="70" width="316.71" height="120" as="geometry" />
        </mxCell>
        <mxCell id="rY513LM-Vtfgfo_wqPMt-48" value="" style="endArrow=classic;html=1;rounded=0;fontFamily=Courier New;exitX=0.5;exitY=1;exitDx=0;exitDy=0;entryX=0;entryY=0.5;entryDx=0;entryDy=0;edgeStyle=orthogonalEdgeStyle;" parent="1" source="rY513LM-Vtfgfo_wqPMt-41" target="j6rCjOf4KR4LdH4R0Cua-35" edge="1">
          <mxGeometry width="50" height="50" relative="1" as="geometry">
            <mxPoint x="390" y="450" as="sourcePoint" />
            <mxPoint x="440" y="367" as="targetPoint" />
          </mxGeometry>
        </mxCell>
        <mxCell id="rY513LM-Vtfgfo_wqPMt-49" value="matrix()" style="edgeLabel;html=1;align=center;verticalAlign=middle;resizable=0;points=[];fontFamily=Courier New;" parent="rY513LM-Vtfgfo_wqPMt-48" vertex="1" connectable="0">
          <mxGeometry x="-0.2024" relative="1" as="geometry">
            <mxPoint as="offset" />
          </mxGeometry>
        </mxCell>
        <mxCell id="rY513LM-Vtfgfo_wqPMt-52" value="matrix: ExampleMatrix" style="text;html=1;strokeColor=none;fillColor=none;align=left;verticalAlign=top;whiteSpace=wrap;rounded=0;labelBackgroundColor=none;fontFamily=Courier New;" parent="1" vertex="1">
          <mxGeometry x="161.73" y="398.64" width="201.27" height="28.36" as="geometry" />
        </mxCell>
      </root>
    </mxGraphModel>
  </diagram>
</mxfile>
